<?xml version="1.0" encoding="UTF-8" standalone="no"?>
<!DOCTYPE svg PUBLIC "-//W3C//DTD SVG 1.1//EN" "http://www.w3.org/Graphics/SVG/1.1/DTD/svg11.dtd">
<!-- Generated by graphviz version 2.26.3 (20100126.1600)
 -->
<!-- Title: G Pages: 1 -->
<svg xmlns="http://www.w3.org/2000/svg" xmlns:xlink="http://www.w3.org/1999/xlink" width="552pt" height="152pt">
<g id="viewport" class="graph" transform="scale(1 1) rotate(0) translate(4 148)">
<title>G</title>
<polygon fill="white" stroke="white" points="-4,5 -4,-148 549,-148 549,5 -4,5"/>
<g id="graph2" class="cluster"><title>cluster_default</title>
<polyline fill="none" stroke="gray" points="406,-8 524,-8 "/>
<path fill="none" stroke="gray" d="M524,-8C530,-8 536,-14 536,-20"/>
<polyline fill="none" stroke="gray" points="536,-20 536,-124 "/>
<path fill="none" stroke="gray" d="M536,-124C536,-130 530,-136 524,-136"/>
<polyline fill="none" stroke="gray" points="524,-136 406,-136 "/>
<path fill="none" stroke="gray" d="M406,-136C400,-136 394,-130 394,-124"/>
<polyline fill="none" stroke="gray" points="394,-124 394,-20 "/>
<path fill="none" stroke="gray" d="M394,-20C394,-14 400,-8 406,-8"/>
<text text-anchor="middle" x="465" y="-122.1" font-family="Times Roman,serif" font-size="11.00" fill="gray">default</text>
</g>
<!-- _SimpleString -->
<g id="node2" class="node"><title>_SimpleString</title>
<a xlink:href="_SimpleString.class.html" xlink:title="SimpleString" target="_parent">
<polygon fill="none" stroke="black" points="514,-106 416,-106 416,-70 514,-70 514,-106"/>
<text text-anchor="middle" x="465" y="-85.1" font-family="Courier New" font-size="11.00">SimpleString</text>
</a>
</g>
<!-- _SimpleStringTest -->
<g id="node3" class="node"><title>_SimpleStringTest</title>
<a xlink:href="_tests_SimpleStringTest.html" xlink:title="SimpleStringTest" target="_parent">
<polygon fill="none" stroke="black" points="527,-52 403,-52 403,-16 527,-16 527,-52"/>
<text text-anchor="middle" x="465" y="-31.1" font-family="Courier New" font-size="11.00">SimpleStringTest</text>
</a>
</g>
<!-- _PHPUnit_Framework_TestCase -->
<g id="node5" class="node"><title>_PHPUnit_Framework_TestCase</title>
<ellipse fill="none" stroke="black" cx="165" cy="-34" rx="164.756" ry="18.3848"/>
<text text-anchor="middle" x="165" y="-30.4" font-family="Times Roman,serif" font-size="14.00" fill="gray">\PHPUnit_Framework_TestCase</text>
</g>
<!-- _SimpleStringTest&#45;&gt;_PHPUnit_Framework_TestCase -->
<g id="edge3" class="edge"><title>_SimpleStringTest-&gt;_PHPUnit_Framework_TestCase</title>
<path fill="none" stroke="black" d="M402.475,-34C383.861,-34 362.484,-34 340.349,-34"/>
<polygon fill="none" stroke="black" points="340.132,-30.5001 330.132,-34 340.132,-37.5001 340.132,-30.5001"/>
</g>
</g>
<script xlink:href="js/SVGPan.js"/></svg>
